<svg xmlns="http://www.w3.org/2000/svg" class="fill-current p-2 smd:p-1 md:p-2 max-h-full w-100 h-100" viewBox="0 0 105 100"><path d="M19,64c-0.4-0.6-1.1-1-1.9-1c-1.3,0-2.4,1.1-2.4,2.4s1.1,2.4,2.4,2.4c1,0,1.9-0.6,2.2-1.5l-2.2-1.1L19,64z M27.5,65.5l2-1.3c-0.4-0.7-1.2-1.2-2-1.2c-1.3,0-2.4,1.1-2.4,2.4c0,1.3,1.1,2.4,2.4,2.4c0.9,0,1.7-0.5,2.1-1.3L27.5,65.5z M37.4,54 c0.6-0.3,1.1-0.8,1.5-1.3c2.5-3.6,1.9-15,1.9-15s-2.6,3-4.4,3.4c-1.8,0.4-4.7,0.6-7.6,2.7c-1.9,1.4-3.1,4.6-3.7,6.3 c-0.2,0-0.5,0-0.7,0c-0.7,0-1.3,0-2,0c0.1-0.7,0-1.7-0.5-3.2c-1.3-3.6-3.4-6.1-4.7-7.9c-1.3-1.8-1.6-5.6-1.6-5.6s-6.3,5.6-7,12 c-0.4,3.4,1.9,6.1,3.5,7.4C7,55.9,5.1,61,4.5,64.9l0,0c0,0,0,1.8-1.9,2.4C1.1,67.6,0,68.5,0,68.5h3.1L0,70.8l4.3-0.5l-1.5,2.5 c0,0,1.9-1.5,4.4-1.8c0.1,0,0.3,0,0.6,0c3.6,0.9,8.7,2.6,10.6,4.8c1.8,2,2.3,6.5,3.1,9.9c-0.5,0.6-0.7,1.4-0.7,2.2 c0,2.1,1.7,3.7,3.7,3.7c0.1,0,0.1,0,0.2,0c0,0.1-0.1,0.1-0.1,0.2l0.1-0.2c2-0.1,3.6-1.7,3.6-3.7c0-0.2,0-0.4,0-0.5 c-0.1-0.4-0.2-0.8-0.3-1.1c-0.3-0.6-0.8-1.2-1.4-1.5c0.1-1,0.2-2.1,0.3-3.2c0.1-4.4-0.8-5.8-0.8-5.8s2.3,2.7,2.5,5.8 c0.1,0.7,0.1,1.3,0.2,1.9c0.6-2.9,1.1-4.6,2.1-7.2s1.8-4.3,3.8-5.4c1.5-0.8,2.7-0.9,2.7-0.9s0-1.1-0.3-2.3c-0.3-1.1-1.4-2.6-1.4-2.6 s1.3-0.2,2.6,0.9c0.9,0.8,1.9,3,1.9,3s0.6-1.1,0.3-2.7s-1.9-4.6-1.9-4.6s1.9,1.3,3.1,3.1c0.8,1.3,1.9,3.6,1.9,3.6s0.5-1.4-0.6-4.9 C41.4,59.4,41.4,57.1,37.4,54L37.4,54z M16.1,70c-2.6,0-4.6-2.1-4.6-4.6s2.1-4.6,4.6-4.6c2.6,0,4.6,2.1,4.6,4.6S18.6,70,16.1,70 L16.1,70z M26.7,69.7c-2.6,0-4.6-2.1-4.6-4.6c0-2.6,2.1-4.6,4.6-4.6s4.6,2.1,4.6,4.6C31.3,67.6,29.2,69.7,26.7,69.7L26.7,69.7z M98.5,25.9c-2.2-2.6-5.3-4.6-9-7.4c-6.9-4.8-13.1-7.9-13.1-7.9L77.1,21c0,0-5.3-2.2-7.7-6.8C66.9,9.7,63.9,0,63.9,0 s-9.3,10.7-5.4,25.5c1.9,7.1,5.1,12.1,7.1,13.7c1.9,1.6,4.9,2.8,4.9,2.8s-3.4,9.4-2.3,16.2c0.2,1.6,0.6,2.7,0.9,3.5 c-1.9-0.2-4.7-0.4-6.8-0.4c-2.7,0-15.9-2-21.2-2.6c0.5,0.6,1.1,1.8,1.4,2.4C43,62,43.6,63,44,64c0.3,0.7,0.5,1.5,0.6,2.2 c0.2,0.4,0.5,0.8,1.1,1.1c0.9,0.4,2,1,2,1L45,68.2l2.2,2L44,69.5l1.2,3.5c0,0-1.1-2-2.9-2.5c-1.8-0.5-5.8,0.1-8.2,1.2 c-1,0.5-2.4,1.7-2.4,1.7l3,2.1c0,0-0.4,4.6-0.8,7.1c-0.4,2.5-2.5,8.4-2.5,9.7s1.3,2.1,3.6,1s7.4-11.1,7.4-11.1l5.7,3.3 c0,0-1,5.4-1.7,7.6c-1.1,3.3-2.7,4.8-1.5,6.3c1.3,1.5,3.3,0.1,4.8-1.1c3.8-3,5.7-10.7,7-10.9C58,87.2,68.8,87,68.8,87 s2.1,10.9,3.7,12s3,0.2,4.1-3.5c1.2-3.8-0.6-12.7-0.6-12.7l-2-1.5l6.6-10.6c0.5-0.2,2.4-1,3.8-1.4c1.6-0.4,2.5-1.1,2.5-1.1v1.4 c0,0,16-10,17.2-24.6C104.8,35.7,101.7,29.8,98.5,25.9L98.5,25.9z M74.8,76.4l-0.5-1c0,0-0.6,5.7-7.3,8.6c-4.7,2-9.3-0.2-9.3-0.2 s0.4-15.1,12.9-14.6C79.4,69.6,74.8,76.4,74.8,76.4L74.8,76.4z M90,25.5c-2-0.8-4.9-1.4-4.9-1.4s1.1,2.3,1.9,4.8 c0.2,0.5,0.3,1.1,0.4,1.6c0,0.1,0,0.2,0.1,0.3c0.7,3.1-0.1,7.1-0.1,7.1s-7-1.5-9.6-3.3c-0.2-0.2-0.5-0.4-0.8-0.6 c-0.5-0.3-1-0.7-1.6-1.1c-2.9-2-6.6-4.4-6.6-4.4s-0.1,2.8,0.3,4.5c0.2,0.9,1.8,6.2,1.8,6.2l-1.4-1.1c0,0-3.4-3.7-5.1-7.3 c-3.9-8-0.7-18.2-0.7-18.2s4.4,6,7.5,8.3c3.1,2.3,9.7,5.9,9.7,5.9l-1.1-9c0,0,6.1,2.8,8.7,4.8c2.7,1.9,5.7,4.7,5.7,4.7 S92,26.3,90,25.5L90,25.5z" fill="#41a62a"/></svg>