<svg xmlns="http://www.w3.org/2000/svg" class="fill-current p-2 smd:p-1 md:p-2 max-h-full w-100 h-100" viewBox="0 0 61 100"><path d="M42.3,70.4l-1-1.5l-2.1,4l-3.3,6.2l-1.3-3.6l-3.9-11L26,75.8l-5.3-7.3l-1.4,2.1L0,100h60.8L42.3,70.4z M25.4,66.5c0,0,4.9-12.8,5.3-12.2c0.4,0.6,5.6,13,5.9,12.6c0.3-0.4,4.6-7.4,4.6-7.4l4.7,6.7c8.8-12.8,6.4-21.9,1.1-34.3 c-4-8.4-8.3-14.8-8.3-14.8l-5,10.4c0,0-3.9-5-3.8-10.8C30.1,11,32.4,0,32.4,0S17.6,5.3,13.3,21.7s1.9,22,2.7,24.9 c1.4,5.2-1.4,9.5-0.4,14.4c0.3,1.7,0.8,3.3,1.4,4.8l3.7-5.1L25.4,66.5z M17.9,42c0,0-2.3-4.7-1.7-11.9c0.6-9.8,9.2-18,9.2-18 s1,8.2,2.7,12.1c1.8,3.9,6.1,11,6.1,11l3.8-9.3c0,0,4.3,6.1,5.8,9.4c1.5,3.4,2.9,7.6,2.9,7.6s-1.6-2.2-3.1-4.1c-1.4-1.9-3.9-4-3.9-4 s-0.3,4.4-1.4,7.8c-1.1,3.4-4,6.8-4,6.8S28.5,44.1,27,41s-5.4-10.8-5.4-10.8s-1.6,2.6-2.2,4.5S17.9,42,17.9,42L17.9,42z" fill="#d14800"/></svg>