<svg xmlns="http://www.w3.org/2000/svg" class="fill-current p-2 smd:p-1 md:p-2 max-h-full w-100 h-100" viewBox="0 0 67 100"><path d="M66.6,96.5c0,0.1,0.1,0.2,0.1,0.4c0,1.2-2.3,2.3-6,3.2c-1.9-0.9-2.5-1.9-2.7-3.5c-0.2-0.9-0.2-2.1-0.5-3.5 c-0.3-2-0.9-4.6-2.5-8c-4-7.8-8.6-13.9-8.6-13.9l-6.5,9c0,0-2.8-3.1-3.6-10c-1-8.6,3.4-15.1,3.4-15.1s-16.9,3.9-23,18.4 C11.9,84.9,15,90.7,16.9,94c0.5,0.9,1,1.6,1.1,2.2c0.1,0.3,0.1,0.5,0.1,0.8c0.1,1.2-0.5,2.2-1.3,3c-3.1-0.8-4.9-1.9-4.9-3l-0.4-35.1 c-1.6-0.4-2.6-1.1-3-2.2c-0.1-0.4-0.2-1.1,0-1.9l0.6-13.4l2.1-3.1L0.1,7C-0.5,5.1,2.5,2.4,7,0.9c4.4-1.5,8.5-1.1,9.2,0.8l10.3,31.5 c-0.2,0-0.5,0.1-0.8,0.1c-3.1,0.4-5.7,2.5-5.7,2.5s2.8-0.7,6.2-0.6c0.4,0,0.9,0,1.2,0.1l3.8,0.9l8.5,10.2c1.2,0.4,2.1,1,2.4,2.1 c0.2,0.5,0.3,1.4-0.3,2.4c-0.2,0.5-0.6,0.9-1,1.4L66.6,96.5L66.6,96.5z M39.2,49.4C39.3,49.3,39.3,49.3,39.2,49.4 c-0.8-0.6-4.7-0.9-11.2,0.8c0.1,0.1,0.2,0.3,0.2,0.4c0.5,1.4-0.6,3-2.3,3.5c-1.7,0.6-3.5-0.1-4-1.4c-0.1-0.2-0.1-0.3-0.1-0.5 c-5.8,2.2-9.7,4.8-10.4,6.3v0.1l0,0c0.3,0.2,1.1,0.4,2.2,0.4c2.4,0.1,6.7-0.4,12.5-2.4c7.1-2.3,11.8-5.3,12.9-7.1 C39.2,49.5,39.2,49.4,39.2,49.4L39.2,49.4z M51.1,87.9C49.6,84.8,45,79,45,79l-5,8.1c0,0-4.5-6.7-6.3-10.4 c-1.8-3.7-2.3-11.1-2.3-11.1s-10.5,6.7-12,15.5C18.1,87.6,20.5,92,20.5,92s1.6-4.7,2.4-6.4c0.8-1.6,2.8-3.9,2.8-3.9s4,7.2,5.5,10.1 l0.1,0.1c0.8,1.4,2.6,3.2,4.3,4.8c1.9,1.8,3.7,3.2,3.7,3.2s1.7-1.4,3.3-3.2c0.7-0.8,1.3-1.7,1.8-2.6c0.4-0.7,0.7-1.5,0.9-2.2 c0.8-2.4,1.2-4.7,1.2-4.7s2.7,2.1,4.3,3.9c0.3,0.4,0.7,0.8,1,1.2C53,93.7,54,95,54,95s-0.4-1.1-0.9-2.6C52.5,91,51.8,89.4,51.1,87.9 L51.1,87.9z M39.2,49.4C39.3,49.3,39.3,49.3,39.2,49.4c0-0.1,0,0-0.1,0.2C39.2,49.5,39.2,49.4,39.2,49.4L39.2,49.4z M11.5,58.6 c0.3,0.2,1.1,0.4,2.2,0.4C12.4,58.7,11.5,58.5,11.5,58.6L11.5,58.6z" fill="#ffd700"/></svg>