<svg xmlns="http://www.w3.org/2000/svg" class="fill-current p-2 smd:p-1 md:p-2 max-h-full w-100 h-100" viewBox="0 0 93 100"><path d="M65.4,56.4c-3.1-3.9-7.6-8.6-12.7-13.3c-8.1-7.4-18-14.8-22-14.8c-1,0-1.7,0.4-2,0.8 c-1.2,1.3-0.8,3.4,1.5,6.8C30,40.6,28.8,48.1,25,55.8c-1.6,3.3-3.2,6.2-4.8,8.8l-1-0.9L5.2,79l1.5,1.3L0,87.6l0.1,0.1 C-0.3,89,1.6,92.1,4.7,95s6.4,4.5,7.7,4l0.1,0.1l0.3-0.3l0,0l0,0l6.4-6.9l1.5,1.3l3-3.3L47.6,100l5-11.6L32.8,80l1.9-2.1l-0.6-0.6 c1.1-0.8,2.3-1.7,3.6-2.6c11.2-8,19.3-9.9,23.7-10.3c2.3,1.3,4.2,2.1,5.5,2.1c1,0,1.7-0.4,2-0.8C70.3,64.1,69.3,61.3,65.4,56.4 L65.4,56.4z M61.4,60.7L52,51.8c0.4-1.7-0.4-3.8-2.2-5.5c-1.7-1.5-3.7-2.1-5.4-1.8L32,32.6c-0.2-0.4-0.4-0.7-0.5-1 c2.7,0.8,9.7,5.3,19.1,13.8c9.7,8.8,14.5,15.3,15.5,17.7C65.1,62.9,63.5,62.1,61.4,60.7L61.4,60.7z M81.7,10.9 c3.2-3.3,10.8-8.1,10.8-8.1s-13-6.4-24.9,0.4s-10.7,14-11.8,16.2c-1.9,3.9-6.1,4.7-8.1,8.1c-0.7,1.2-1.3,2.4-1.7,3.6l5.3-0.6 l0.1,6.5c0,0,10.3-4.3,10.3-3.7s-3.3,11.1-2.9,11.1c0.4,0,7.2-1.4,7.2-1.4l-0.5,6.9c13-1.8,16.4-8.6,19.4-19.2 c1.8-7.4,2.4-13.9,2.4-13.9l-9.1,2.9C78.4,19.5,78.4,14.1,81.7,10.9L81.7,10.9z M82.2,21.4c0,0-0.4,6.2-1.2,9.2 c-0.8,2.9-2.2,6.3-2.2,6.3s0.1-2.3,0.1-4.3s-0.5-4.8-0.5-4.8s-2.6,2.4-5.2,3.6c-2.6,1.3-6.4,1.4-6.4,1.4s-1.2-6.9-0.5-9.6 c0.7-2.8,2.2-9.7,2.2-9.7S66,14,64.6,14.7s-5.1,3.2-5.1,3.2s0.9-4.2,5.3-8c5.8-5.3,16.1-4.6,16.1-4.6s-3.8,5.4-4.7,8.8 c-0.9,3.4-1.8,10.3-1.8,10.3L82.2,21.4z" fill="#cd7f32"/></svg>